<svg width="80" height="80" viewBox="0 0 80 80" fill="none" xmlns="http://www.w3.org/2000/svg">
<g id="css" clip-path="url(#clip0_61_79)">
<path id="Vector" d="M14.1667 6.44812e-06H65.8333C67.6942 -0.00179242 69.5372 0.372807 71.2568 1.10237C72.9763 1.83193 74.5387 2.90212 75.8546 4.25171C77.1704 5.60129 78.2139 7.20377 78.9252 8.96743C79.6365 10.7311 80.0018 12.6213 80 14.5299V65.4701C80.0018 67.3787 79.6365 69.2689 78.9252 71.0326C78.2139 72.7962 77.1704 74.3987 75.8546 75.7483C74.5387 77.0979 72.9763 78.1681 71.2568 78.8976C69.5372 79.6272 67.6942 80.0018 65.8333 80H14.1667C12.3058 80.0018 10.4628 79.6272 8.74325 78.8976C7.02368 78.1681 5.46126 77.0979 4.14541 75.7483C2.82957 74.3987 1.78613 72.7962 1.07481 71.0326C0.363487 69.2689 -0.00174761 67.3787 6.28692e-06 65.4701V14.5299C-0.00174761 12.6213 0.363487 10.7311 1.07481 8.96743C1.78613 7.20377 2.82957 5.60129 4.14541 4.25171C5.46126 2.90212 7.02368 1.83193 8.74325 1.10237C10.4628 0.372807 12.3058 -0.00179242 14.1667 6.44812e-06Z" fill="#2965F1"/>
<g id="Group 2">
<path id="Vector_2" d="M19.582 32.9791L20.3692 41.7631H40.0263V32.9791H19.582ZM18 15.2L18.7985 23.9841H40.0263V15.2H18ZM40.0263 55.7922L39.9878 55.8024L30.205 53.1609L29.5796 46.1553H20.7617L21.9923 59.9476L39.9858 64.9424L40.0263 64.9314V55.7922Z" fill="#EBEBEB"/>
<path id="Vector_3" d="M60.4143 32.9791L61.9999 15.2H39.9959V23.9841H52.3734L51.5741 32.9791H39.9959V41.7631H50.8125L49.7926 53.1554L39.9956 55.7997V64.9382L58.0035 59.9476L58.1355 58.4635L60.2 35.3378L60.4143 32.9791Z" fill="white"/>
</g>
</g>
<defs>
<clipPath id="clip0_61_79">
<rect width="80" height="80" fill="white"/>
</clipPath>
</defs>
</svg>
