<svg width="193" height="94" viewBox="0 0 193 94" fill="none" xmlns="http://www.w3.org/2000/svg">
<g id="Group 21">
<g id="GC">
<path d="M90.021 52.064V92H79.013V86.752C75.7703 88.4587 71.6743 90.0373 66.725 91.488C61.7757 92.8533 56.101 93.536 49.701 93.536C41.1677 93.536 33.829 92.2133 27.685 89.568C21.541 86.8373 16.4637 83.2534 12.453 78.816C8.52766 74.2934 5.58366 69.216 3.62099 63.584C1.74366 57.8667 0.804993 51.9787 0.804993 45.92C0.804993 38.8373 2.04233 32.5227 4.51699 26.976C6.99166 21.344 10.4477 16.608 14.885 12.768C19.3223 8.92801 24.5703 5.98401 30.629 3.93601C36.773 1.88801 43.4717 0.864014 50.725 0.864014C57.0397 0.864014 62.501 1.58935 67.109 3.04001C71.8023 4.40534 75.7277 6.11201 78.885 8.16001C82.0423 10.208 84.517 12.4267 86.309 14.816C88.1863 17.12 89.509 19.2107 90.277 21.088H81.061C80.549 19.296 79.397 17.5467 77.605 15.84C75.8983 14.048 73.6797 12.4693 70.949 11.104C68.2183 9.73868 65.1037 8.62935 61.605 7.77601C58.1063 6.92268 54.3517 6.49601 50.341 6.49601C44.2823 6.49601 38.949 7.47734 34.341 9.44001C29.8183 11.4027 25.9783 14.176 22.821 17.76C19.6637 21.344 17.2743 25.6107 15.653 30.56C14.117 35.5093 13.349 40.928 13.349 46.816C13.349 52.7893 14.1597 58.2933 15.781 63.328C17.4877 68.2773 20.005 72.5867 23.333 76.256C26.661 79.84 30.8423 82.656 35.877 84.704C40.9117 86.752 46.7997 87.776 53.541 87.776C58.661 87.776 63.2263 87.1787 67.237 85.984C71.2477 84.7893 75.173 82.9547 79.013 80.48V57.312H64.677V52.064H90.021Z" fill="#838171"/>
<path d="M188.502 75.488L192.342 78.944C191.233 80.224 189.611 81.7173 187.478 83.424C185.345 85.1307 182.657 86.752 179.414 88.288C176.257 89.7387 172.502 90.976 168.15 92C163.883 93.024 159.019 93.536 153.558 93.536C144.939 93.536 137.515 92.2133 131.286 89.568C125.057 86.8373 119.937 83.296 115.926 78.944C111.915 74.5067 108.929 69.472 106.966 63.84C105.089 58.1227 104.15 52.2773 104.15 46.304C104.15 39.392 105.345 33.1627 107.734 27.616C110.123 21.984 113.494 17.2053 117.846 13.28C122.198 9.26934 127.403 6.19734 133.462 4.06401C139.606 1.93068 146.39 0.864014 153.814 0.864014C158.934 0.864014 163.499 1.37601 167.51 2.40001C171.521 3.42401 175.019 4.83201 178.006 6.62401C180.993 8.41601 183.467 10.5493 185.43 13.024C187.478 15.4987 189.142 18.1867 190.422 21.088H180.95C180.353 19.296 179.286 17.5467 177.75 15.84C176.299 14.048 174.379 12.4693 171.99 11.104C169.686 9.73868 166.998 8.62935 163.926 7.77601C160.939 6.92268 157.611 6.49601 153.942 6.49601C148.566 6.49601 143.574 7.47734 138.966 9.44001C134.443 11.4027 130.518 14.1333 127.19 17.632C123.862 21.1307 121.259 25.312 119.382 30.176C117.59 34.9547 116.694 40.2453 116.694 46.048C116.694 51.5093 117.547 56.7573 119.254 61.792C121.046 66.8267 123.649 71.264 127.062 75.104C130.475 78.944 134.742 82.016 139.862 84.32C144.982 86.624 150.87 87.776 157.526 87.776C169.473 87.776 179.798 83.68 188.502 75.488Z" fill="#838171"/>
</g>
</g>
</svg>
