<svg width="35" height="35" viewBox="0 0 35 35" fill="none" xmlns="http://www.w3.org/2000/svg">
<g id="Social Icons" clip-path="url(#clip0_49_56)">
<path id="Vector" fill-rule="evenodd" clip-rule="evenodd" d="M17.2541 0.5C7.84572 0.5 0.23999 8.1618 0.23999 17.6405C0.23999 25.2173 5.11324 31.6309 11.8737 33.9009C12.719 34.0716 13.0286 33.5321 13.0286 33.0783C13.0286 32.6809 13.0007 31.3189 13.0007 29.8997C8.26781 30.9215 7.28223 27.8564 7.28223 27.8564C6.52162 25.87 5.39464 25.3594 5.39464 25.3594C3.84556 24.3094 5.50748 24.3094 5.50748 24.3094C7.22581 24.4229 8.12746 26.0688 8.12746 26.0688C9.64833 28.6794 12.0991 27.9418 13.085 27.4876C13.2257 26.3809 13.6767 25.6147 14.1556 25.1891C10.3807 24.7917 6.40913 23.3161 6.40913 16.7322C6.40913 14.8593 7.08476 13.3269 8.15532 12.1351C7.98642 11.7096 7.39472 9.94978 8.32458 7.59448C8.32458 7.59448 9.76117 7.14034 13.0004 9.3539C14.3872 8.97871 15.8174 8.78784 17.2541 8.78623C18.6906 8.78623 20.1551 8.98509 21.5074 9.3539C24.7469 7.14034 26.1835 7.59448 26.1835 7.59448C27.1134 9.94978 26.5213 11.7096 26.3524 12.1351C27.4512 13.3269 28.099 14.8593 28.099 16.7322C28.099 23.3161 24.1274 24.7632 20.3243 25.1891C20.9443 25.7282 21.4792 26.7497 21.4792 28.3674C21.4792 30.6659 21.4513 32.5106 21.4513 33.078C21.4513 33.5321 21.7613 34.0716 22.6062 33.9013C29.3667 31.6306 34.2399 25.2173 34.2399 17.6405C34.2678 8.1618 26.6342 0.5 17.2541 0.5Z" fill="#838171"/>
</g>
<defs>
<clipPath id="clip0_49_56">
<rect width="34" height="34" fill="white" transform="translate(0.23999 0.5)"/>
</clipPath>
</defs>
</svg>
