<svg width="80" height="80" viewBox="0 0 80 80" fill="none" xmlns="http://www.w3.org/2000/svg">
<g id="JavaScript" clip-path="url(#clip0_61_71)">
<path id="Vector" d="M14.1667 6.44812e-06H65.8333C67.6942 -0.00179242 69.5372 0.372807 71.2568 1.10237C72.9763 1.83193 74.5387 2.90212 75.8546 4.25171C77.1704 5.60129 78.2139 7.20377 78.9252 8.96743C79.6365 10.7311 80.0017 12.6213 80 14.5299V65.4701C80.0017 67.3787 79.6365 69.2689 78.9252 71.0326C78.2139 72.7962 77.1704 74.3987 75.8546 75.7483C74.5387 77.0979 72.9763 78.1681 71.2568 78.8976C69.5372 79.6272 67.6942 80.0018 65.8333 80H14.1667C12.3058 80.0018 10.4628 79.6272 8.74325 78.8976C7.02368 78.1681 5.46126 77.0979 4.14541 75.7483C2.82957 74.3987 1.78613 72.7962 1.07481 71.0326C0.363487 69.2689 -0.00174761 67.3787 6.28692e-06 65.4701V14.5299C-0.00174761 12.6213 0.363487 10.7311 1.07481 8.96743C1.78613 7.20377 2.82957 5.60129 4.14541 4.25171C5.46126 2.90212 7.02368 1.83193 8.74325 1.10237C10.4628 0.372807 12.3058 -0.00179242 14.1667 6.44812e-06Z" fill="#F7DF1E"/>
<path id="Vector_2" d="M53.8758 62.5968C55.4872 65.228 57.5837 67.1619 61.2916 67.1619C64.4065 67.1619 66.3964 65.6051 66.3964 63.454C66.3964 60.8762 64.3519 59.9632 60.9234 58.4635L59.044 57.6572C53.6192 55.3461 50.0154 52.4508 50.0154 46.3302C50.0154 40.6921 54.3113 36.4 61.025 36.4C65.8046 36.4 69.2408 38.0635 71.717 42.4191L65.8631 46.1778C64.5742 43.8667 63.1837 42.9562 61.025 42.9562C58.8231 42.9562 57.4275 44.353 57.4275 46.1778C57.4275 48.433 58.8243 49.3461 62.0497 50.7429L63.9291 51.548C70.3164 54.287 73.9227 57.0794 73.9227 63.3575C73.9227 70.1257 68.6059 73.8337 61.4656 73.8337C54.484 73.8337 49.9735 70.5067 47.7665 66.1461L53.8758 62.5968ZM27.3196 63.2483C28.5005 65.3435 29.5748 67.1149 32.1577 67.1149C34.6275 67.1149 36.1856 66.1486 36.1856 62.3911V36.8292H43.7031V62.4927C43.7031 70.2768 39.1392 73.8197 32.4777 73.8197C26.4586 73.8197 22.9729 70.7048 21.2002 66.953L27.3196 63.2483Z" fill="black"/>
</g>
<defs>
<clipPath id="clip0_61_71">
<rect width="80" height="80" fill="white"/>
</clipPath>
</defs>
</svg>
