<svg width="47" height="34" viewBox="0 0 47 34" fill="none" xmlns="http://www.w3.org/2000/svg">
<path id="Subtract" fill-rule="evenodd" clip-rule="evenodd" d="M41.9978 0C43.3833 0 44.6137 0.633754 45.3879 1.61402L22.9034 19.607L0.61928 1.94075C1.36436 0.776866 2.7082 0 4.2422 0H41.9978ZM0 29.9524V5.13353L15.9895 17.8095L0.032961 30.4594C0.0112114 30.2933 0 30.1241 0 29.9524ZM1.46233 33.01C2.20684 33.6267 3.17883 34 4.2422 34H41.9978C42.9118 34 43.7582 33.7242 44.4508 33.2551L27.4601 19.6585L24.4047 22.1036C23.5406 22.7951 22.2817 22.7978 21.4143 22.1101L18.3128 19.6514L1.46233 33.01ZM29.7706 17.8095L46.1241 30.8962C46.1999 30.5934 46.24 30.2773 46.24 29.9524V4.63008L29.7706 17.8095Z" fill="#838171"/>
</svg>
